# xmcd
#
# Track frame offsets:
#	150
#	13650
#	30328
#	47888
#	75673
#	91073
#	109197
#	135876
#	154962
#
# Disc length: 2317 seconds
#
# Revision: 0
# Processed by: cddbd v1.5.1PL0 Copyright (c) Steve Scherf et al.
# Submitted via: dBpowerAMP V4.0
#
DISCID=5f090b09
DTITLE=Jony James Blues Band - Jony James Blues Band
DYEAR=1998
DGENRE=Blues
TTITLE0=I've Been Told
TTITLE1=Crazy Crazy World
TTITLE2=Stubborn As A Mule
TTITLE3=Hotel Blues
TTITLE4=Fare Thee Well
TTITLE5=Drove Me Crazy
TTITLE6=I Don't Know Love
TTITLE7=Voices
TTITLE8=Golden Rule
EXTD=
EXTT0=
EXTT1=
EXTT2=
EXTT3=
EXTT4=
EXTT5=
EXTT6=
EXTT7=
EXTT8=
PLAYORDER=
